<?xml version="1.0" encoding="UTF-8" standalone="no"?>
<!-- Created with Inkscape (http://www.inkscape.org/) -->

<svg
   width="512"
   height="512"
   viewBox="0 0 135.46666 135.46667"
   version="1.1"
   id="svg268"
   xml:space="preserve"
   sodipodi:docname="drawing.svg"
   inkscape:version="1.2.2 (b0a8486541, 2022-12-01)"
   xmlns:inkscape="http://www.inkscape.org/namespaces/inkscape"
   xmlns:sodipodi="http://sodipodi.sourceforge.net/DTD/sodipodi-0.dtd"
   xmlns="http://www.w3.org/2000/svg"
   xmlns:svg="http://www.w3.org/2000/svg"><g
     id="g14105"
     transform="matrix(0.55087182,0,0,0.5474116,8.9786839,18.44209)"><g
       inkscape:label="Markers Shadow"
       inkscape:groupmode="layer"
       id="g11014"
       style="display:inline;fill:#f6c636;fill-opacity:1;filter:url(#filter11032)"><path
         id="path10984"
         style="display:inline;fill:#f6c636;fill-opacity:1;stroke:#94691a;stroke-width:0.264583;stroke-opacity:1"
         d="m 163.10736,28.6644 c -6.23266,-1e-6 -11.28562,5.36331 -11.28562,11.979114 0,6.615804 9.37958,18.770947 11.33833,18.770947 1.95873,0 11.23239,-12.155143 11.23239,-18.770947 0,-6.615804 -5.05245,-11.979115 -11.2851,-11.979114 z m -0.17519,4.389396 a 7.1575732,7.1575732 0 0 1 7.15719,7.157703 7.1575732,7.1575732 0 0 1 -7.15719,7.157703 7.1575732,7.1575732 0 0 1 -7.1577,-7.157703 7.1575732,7.1575732 0 0 1 7.1577,-7.157703 z" /><path
         id="path10986"
         style="display:inline;fill:#f6c636;fill-opacity:1;stroke:#94691a;stroke-width:0.264583;stroke-opacity:1"
         d="m 54.441076,110.15606 c -6.232657,0 -11.285614,5.36331 -11.285614,11.97912 0,6.61581 9.379574,18.77096 11.338324,18.77096 1.958727,0 11.232381,-12.15515 11.232381,-18.77096 0,-6.61581 -5.052447,-11.97912 -11.285091,-11.97912 z m -0.17519,4.3894 a 7.1575732,7.1575732 0 0 1 7.157184,7.1577 7.1575732,7.1575732 0 0 1 -7.157184,7.15771 7.1575732,7.1575732 0 0 1 -7.157697,-7.15771 7.1575732,7.1575732 0 0 1 7.157697,-7.1577 z" /><rect
         style="fill:#f6c636;fill-opacity:1;stroke:#94691a;stroke-width:0.264583;stroke-opacity:1"
         id="rect10988"
         width="7.0246415"
         height="4.8315058"
         x="80.3862"
         y="127.33897"
         ry="2.3130298"
         transform="rotate(6.784291)" /><rect
         style="fill:#f6c636;fill-opacity:1;stroke:#94691a;stroke-width:0.264583;stroke-opacity:1"
         id="rect10990"
         width="7.0246415"
         height="4.8315058"
         x="83.570862"
         y="134.26187"
         ry="2.3130298"
         transform="rotate(2.1210892)" /><rect
         style="fill:#f6c636;fill-opacity:1;stroke:#94691a;stroke-width:0.264583;stroke-opacity:1"
         id="rect10992"
         width="7.0246415"
         height="4.8315058"
         x="111.56954"
         y="123.72204"
         ry="2.3130298"
         transform="rotate(8.1175561)" /><rect
         style="fill:#f6c636;fill-opacity:1;stroke:#94691a;stroke-width:0.264583;stroke-opacity:1"
         id="rect10994"
         width="7.0246415"
         height="4.8315058"
         x="122.74277"
         y="126.29498"
         ry="2.3130298"
         transform="rotate(6.7720135)" /><rect
         style="fill:#f6c636;fill-opacity:1;stroke:#94691a;stroke-width:0.264583;stroke-opacity:1"
         id="rect10996"
         width="7.0246415"
         height="4.8315058"
         x="149.51514"
         y="111.57659"
         ry="2.3130298"
         transform="rotate(12.745096)" /><rect
         style="fill:#f6c636;fill-opacity:1;stroke:#94691a;stroke-width:0.264583;stroke-opacity:1"
         id="rect10998"
         width="7.0246415"
         height="4.8315058"
         x="19.083294"
         y="133.48973"
         ry="2.3130298"
         transform="rotate(-25.056936)" /><rect
         style="fill:#f6c636;fill-opacity:1;stroke:#94691a;stroke-width:0.264583;stroke-opacity:1"
         id="rect11000"
         width="7.0246415"
         height="4.8315058"
         x="43.410503"
         y="130.44579"
         ry="2.3130298"
         transform="rotate(-20.56812)" /><rect
         style="fill:#f6c636;fill-opacity:1;stroke:#94691a;stroke-width:0.264583;stroke-opacity:1"
         id="rect11002"
         width="7.0246415"
         height="4.8315058"
         x="57.396381"
         y="130.14008"
         ry="2.3130298"
         transform="rotate(-20.56812)" /><rect
         style="fill:#f6c636;fill-opacity:1;stroke:#94691a;stroke-width:0.264583;stroke-opacity:1"
         id="rect11004"
         width="7.0246415"
         height="4.8315058"
         x="54.008701"
         y="138.40063"
         ry="2.3130298"
         transform="rotate(-27.866457)" /><rect
         style="fill:#f6c636;fill-opacity:1;stroke:#94691a;stroke-width:0.264583;stroke-opacity:1"
         id="rect11006"
         width="7.0246415"
         height="4.8315058"
         x="68.051132"
         y="139.57118"
         ry="2.3130298"
         transform="rotate(-27.866457)" /><rect
         style="fill:#f6c636;fill-opacity:1;stroke:#94691a;stroke-width:0.264583;stroke-opacity:1"
         id="rect11008"
         width="7.0246415"
         height="4.8315058"
         x="64.600739"
         y="148.80275"
         ry="2.3130298"
         transform="rotate(-34.63675)" /><rect
         style="fill:#f6c636;fill-opacity:1;stroke:#94691a;stroke-width:0.264583;stroke-opacity:1"
         id="rect11010"
         width="7.0246415"
         height="4.8315058"
         x="38.457916"
         y="164.35405"
         ry="2.3130298"
         transform="rotate(-49.146841)" /><rect
         style="fill:#f6c636;fill-opacity:1;stroke:#94691a;stroke-width:0.264583;stroke-opacity:1"
         id="rect11012"
         width="7.0246415"
         height="4.8315058"
         x="15.794303"
         y="171.34612"
         ry="2.3130298"
         transform="rotate(-61.361758)" /></g><g
       inkscape:label="Markers"
       inkscape:groupmode="layer"
       id="layer1"
       style="display:inline;stroke:#dba33f;stroke-opacity:1"><path
         id="path1132"
         style="display:inline;fill:#dbaa51;fill-opacity:1;stroke:#dba33f;stroke-width:0.264583;stroke-opacity:1"
         d="m 163.10736,28.6644 c -6.23266,-1e-6 -11.28562,5.36331 -11.28562,11.979114 0,6.615804 9.37958,18.770947 11.33833,18.770947 1.95873,0 11.23239,-12.155143 11.23239,-18.770947 0,-6.615804 -5.05245,-11.979115 -11.2851,-11.979114 z m -0.17519,4.389396 a 7.1575732,7.1575732 0 0 1 7.15719,7.157703 7.1575732,7.1575732 0 0 1 -7.15719,7.157703 7.1575732,7.1575732 0 0 1 -7.1577,-7.157703 7.1575732,7.1575732 0 0 1 7.1577,-7.157703 z" /><path
         id="path1138"
         style="display:inline;fill:#dbaa51;fill-opacity:1;stroke:#dba33f;stroke-width:0.264583;stroke-opacity:1"
         d="m 54.441076,110.15606 c -6.232657,0 -11.285614,5.36331 -11.285614,11.97912 0,6.61581 9.379574,18.77096 11.338324,18.77096 1.958727,0 11.232381,-12.15515 11.232381,-18.77096 0,-6.61581 -5.052447,-11.97912 -11.285091,-11.97912 z m -0.17519,4.3894 a 7.1575732,7.1575732 0 0 1 7.157184,7.1577 7.1575732,7.1575732 0 0 1 -7.157184,7.15771 7.1575732,7.1575732 0 0 1 -7.157697,-7.15771 7.1575732,7.1575732 0 0 1 7.157697,-7.1577 z" /><rect
         style="fill:#dbaa51;fill-opacity:1;stroke:#dba33f;stroke-width:0.264583;stroke-opacity:1"
         id="rect1200"
         width="7.0246415"
         height="4.8315058"
         x="80.3862"
         y="127.33897"
         ry="2.3130298"
         transform="rotate(6.784291)" /><rect
         style="fill:#dbaa51;fill-opacity:1;stroke:#dba33f;stroke-width:0.264583;stroke-opacity:1"
         id="rect1204"
         width="7.0246415"
         height="4.8315058"
         x="83.570862"
         y="134.26187"
         ry="2.3130298"
         transform="rotate(2.1210892)" /><rect
         style="fill:#dbaa51;fill-opacity:1;stroke:#dba33f;stroke-width:0.264583;stroke-opacity:1"
         id="rect1206"
         width="7.0246415"
         height="4.8315058"
         x="111.56954"
         y="123.72204"
         ry="2.3130298"
         transform="rotate(8.1175561)" /><rect
         style="fill:#dbaa51;fill-opacity:1;stroke:#dba33f;stroke-width:0.264583;stroke-opacity:1"
         id="rect1208"
         width="7.0246415"
         height="4.8315058"
         x="122.74277"
         y="126.29498"
         ry="2.3130298"
         transform="rotate(6.7720135)" /><rect
         style="fill:#dbaa51;fill-opacity:1;stroke:#dba33f;stroke-width:0.264583;stroke-opacity:1"
         id="rect1210"
         width="7.0246415"
         height="4.8315058"
         x="149.51514"
         y="111.57659"
         ry="2.3130298"
         transform="rotate(12.745096)" /><rect
         style="fill:#dbaa51;fill-opacity:1;stroke:#dba33f;stroke-width:0.264583;stroke-opacity:1"
         id="rect1212"
         width="7.0246415"
         height="4.8315058"
         x="19.083294"
         y="133.48973"
         ry="2.3130298"
         transform="rotate(-25.056936)" /><rect
         style="fill:#dbaa51;fill-opacity:1;stroke:#dba33f;stroke-width:0.264583;stroke-opacity:1"
         id="rect1214"
         width="7.0246415"
         height="4.8315058"
         x="43.410503"
         y="130.44579"
         ry="2.3130298"
         transform="rotate(-20.56812)" /><rect
         style="fill:#dbaa51;fill-opacity:1;stroke:#dba33f;stroke-width:0.264583;stroke-opacity:1"
         id="rect1216"
         width="7.0246415"
         height="4.8315058"
         x="57.396381"
         y="130.14008"
         ry="2.3130298"
         transform="rotate(-20.56812)" /><rect
         style="fill:#dbaa51;fill-opacity:1;stroke:#dba33f;stroke-width:0.264583;stroke-opacity:1"
         id="rect1218"
         width="7.0246415"
         height="4.8315058"
         x="54.008701"
         y="138.40063"
         ry="2.3130298"
         transform="rotate(-27.866457)" /><rect
         style="fill:#dbaa51;fill-opacity:1;stroke:#dba33f;stroke-width:0.264583;stroke-opacity:1"
         id="rect1220"
         width="7.0246415"
         height="4.8315058"
         x="68.051132"
         y="139.57118"
         ry="2.3130298"
         transform="rotate(-27.866457)" /><rect
         style="fill:#dbaa51;fill-opacity:1;stroke:#dba33f;stroke-width:0.264583;stroke-opacity:1"
         id="rect1222"
         width="7.0246415"
         height="4.8315058"
         x="64.600739"
         y="148.80275"
         ry="2.3130298"
         transform="rotate(-34.63675)" /><rect
         style="fill:#dbaa51;fill-opacity:1;stroke:#dba33f;stroke-width:0.264583;stroke-opacity:1"
         id="rect1224"
         width="7.0246415"
         height="4.8315058"
         x="38.457916"
         y="164.35405"
         ry="2.3130298"
         transform="rotate(-49.146841)" /><rect
         style="fill:#dbaa51;fill-opacity:1;stroke:#dba33f;stroke-width:0.264583;stroke-opacity:1"
         id="rect1226"
         width="7.0246415"
         height="4.8315058"
         x="15.794303"
         y="171.34612"
         ry="2.3130298"
         transform="rotate(-61.361758)" /></g><path
       style="display:inline;fill:#ffffff;fill-opacity:1;stroke:#000000;stroke-width:0.264583;stroke-linecap:round;stroke-linejoin:round;stroke-dasharray:none;stroke-opacity:1;paint-order:fill markers stroke"
       d="M 90.948508,209.67427 83.937049,205.44019 76.925591,201.20611 64.093299,193.46306 51.261006,185.72 46.630798,182.92333 42.00059,180.12667 24.69364,169.72377 7.3866892,159.32088 5.9752199,158.23194 4.5637509,157.14299 3.0415445,155.5157 1.5193383,153.8884 c 0,0 -0.93214616,-0.94405 -1.33964343,-1.4656 -1.20149867,-1.74864 -2.30088837,-3.80623 -3.05508147,-5.60993 -0.31119,-0.77128 -0.5503933,-1.57265 -0.7449968,-2.38125 -0.1929943,-0.80192 -0.4165285,-2.43913 -0.4165285,-2.43913 l -0.063999,-46.963542 -0.063999,-46.963541 -0.016594,-2.451526 0.00331,-3.868129 C -3.9373954,32.929898 0.40856651,26.255285 6.9610498,21.321349 l 4.9408072,-3.179492 5.227898,-3.106512 10.186459,-6.0804376 10.186459,-6.0804346 1.719791,-1.0646304 1.719792,-1.0646278 9.921875,-5.9963394 9.921876,-5.9963372 4.233333,-2.593884 4.233334,-2.593883 2.910416,-1.775465 2.910417,-1.775464 4.894792,-2.991557 4.894792,-2.991556 2.897936,-1.719985 2.897939,-1.719985 c 10.504664,-5.131552 19.103114,-4.488379 29.366794,0.672075 l 17.07908,10.257864 17.07909,10.2578642 4.23333,2.5913609 4.23333,2.5913609 4.10104,2.5065064 4.10105,2.5065064 8.06979,4.8947705 8.06979,4.8947707 3.175,1.928894 3.175,1.928892 4.87086,2.992726 4.87087,2.992723 c 7.75939,4.767465 10.73847,11.022263 10.74338,19.934121 l 0.0255,46.256898 0.0255,46.256898 -0.1433,3.57187 c -0.12072,6.40186 -3.12097,14.59947 -8.03326,18.8769 l -1.77624,1.54668 -1.05834,0.73527 -1.05833,0.73527 -9.26042,5.63485 -9.26041,5.63486 -7.14375,4.28622 -7.14376,4.28623 -13.49375,8.14415 -13.49375,8.14416 -11.17432,6.70095 -11.17432,6.70096 -1.8527,0.933 c -8.9401,4.47919 -18.061299,3.71907 -26.863212,-0.31209 z m 23.320312,-7.92462 7.91901,-4.71089 7.91901,-4.71088 0.61486,-0.55979 0.61486,-0.55978 2.41021,-3.30895 2.4102,-3.30895 2.38537,-3.175 2.38537,-3.175 2.12048,-2.64584 2.12048,-2.64583 3.20955,-3.70417 3.20954,-3.70416 2.68715,-2.68617 2.68714,-2.68617 v -0.27007 -0.27008 l -1.78594,-1.16979 -1.78593,-1.16979 -1.45521,-0.81645 -1.45521,-0.81645 -1.98438,-0.79285 -1.98437,-0.79286 -3.175,-0.96296 -3.175,-0.96297 -0.70796,-0.0221 -0.70795,-0.0222 -2.20246,1.14036 -2.20246,1.14036 -2.64584,1.4968 -2.64583,1.4968 -2.73736,1.77681 -2.73735,1.77681 -2.95119,2.17418 -2.95118,2.17417 -3.175,2.63271 -3.17501,2.63271 -4.90798,4.90792 -4.90798,4.90791 -2.250033,2.64584 -2.250035,2.64583 -2.391773,3.04271 -2.39177,3.04271 -1.777084,2.46728 -1.777087,2.46729 -0.128953,0.33604 -0.12895,0.33604 3.486465,2.20222 3.486465,2.20221 c 7.205995,3.27245 11.827825,2.7452 18.886115,0.004 z m -29.670313,-11.81802 2.381251,-3.22456 0.08846,-0.34587 0.08846,-0.34587 -1.776114,-4.28434 -1.776113,-4.28433 -1.748177,-3.43959 c 0,0 -0.994576,-2.39738 -1.748178,-3.43958 -0.624446,-0.86358 -1.277631,-1.81488 -2.028535,-2.57109 -0.750905,-0.7562 -1.589583,-1.39705 -2.476891,-1.96615 -0.749253,-0.48056 -2.38125,-1.20851 -2.38125,-1.20851 l -2.38125,-1.2085 -3.571875,-1.51655 -3.571875,-1.51655 -2.116667,-1.06085 -2.116667,-1.06085 c -3.054821,-1.76426 -3.535271,-2.06112 -3.791028,-3.33951 -0.273615,-1.65681 0.741583,-3.36257 2.044495,-4.19148 0.323419,-0.19947 0.715177,-0.31547 1.095158,-0.31639 0.695175,-0.002 1.348536,0.34435 2.006389,0.56907 0.63903,0.2183 1.879853,0.75517 1.879853,0.75517 l 2.057077,0.86364 3.307292,1.5681 3.307292,1.5681 2.72211,1.29115 2.72211,1.29115 1.816772,1.06105 c 0,0 1.254981,0.64126 1.81677,1.06105 0.783207,0.58524 1.568404,1.06826 2.259346,1.71314 0.746057,0.69633 1.382796,1.55923 2.013426,2.30638 0.81359,1.15174 1.719298,2.26026 2.341941,3.52718 l 1.820458,3.70417 1.820457,3.70416 0.858166,1.93772 0.858168,1.93772 0.197422,-0.0856 0.197421,-0.0856 2.933163,-3.175 2.933163,-3.175 3.812583,-3.70417 3.81258,-3.70416 2.7726,-2.39279 2.7726,-2.39278 2.77812,-2.12891 2.77813,-2.1289 3.04271,-2.1109 3.0427,-2.1109 3.57188,-2.21644 3.57187,-2.21645 5.02709,-2.53772 5.02708,-2.53771 4.7625,-2.02761 4.7625,-2.02761 5.55625,-2.35079 5.55625,-2.35078 1.28451,-0.50673 1.2845,-0.50673 0.13106,-0.32603 0.13106,-0.32603 -1.54603,-1.79063 -1.54627,-1.79065 -3.5737,-4.09741 -3.5737,-4.09742 -3.81453,-4.10467 -3.81454,-4.10466 -6.70525,-6.61459 -6.70524,-6.61458 c -1.29623,-1.278708 1.19145,-2.437526 2.26763,-3.160982 1.12538,-0.756533 2.99262,-1.919144 3.95608,-0.94806 l 8.07609,8.139992 8.07608,8.13998 3.16871,3.55879 3.1687,3.55879 1.9898,2.26205 1.98981,2.26204 2.70769,3.22623 2.70769,3.22624 0.22982,0.14204 0.22982,0.14203 5.39144,-2.47336 5.39143,-2.47337 3.83646,-1.9214 3.83646,-1.92141 4.23333,-2.37155 4.23334,-2.37156 3.21929,-2.12649 3.2193,-2.12649 0.15052,-0.56087 0.15054,-0.56088 0.53398,-34.008002 c 0,0 0.64943,-22.939339 -0.53598,-34.254498 -0.22854,-1.238027 -0.52206,-2.464647 -0.78318,-3.697375 -0.83831,-3.703363 -2.52387,-7.177335 -5.64839,-9.154533 l -3.06348,-1.938573 -3.06347,-1.938575 -6.61458,-4.042336 -6.61459,-4.042334 -7.40833,-4.490389 -7.40833,-4.4903892 -4.36563,-2.657557 -4.36562,-2.6575597 -3.96875,-2.43145731 -3.96875,-2.43145999 -0.62372,-0.3293877 -0.62372,-0.3293877 -0.20829,0.2229485 -0.20829,0.2229485 -0.70717,1.98437495 -0.70718,1.98437505 -2.73654,6.8819686 -2.73654,6.881971 -2.13337,4.607243 c -3.30358,7.269593 -7.22393,14.316591 -12.08836,20.66272 l -1.97701,2.5792 -2.8117,2.95505 -2.81171,2.955046 -2.54029,2.127171 -2.54028,2.127171 -2.91042,1.929389 -2.91042,1.929386 -3.30729,1.735802 -3.307291,1.735804 -3.175,1.35694 -3.175,1.356939 -0.206333,0.198763 -0.20633,0.198766 5.632347,2.798887 5.632347,2.798886 4.76044,2.882567 4.76045,2.882569 3.30729,2.214523 3.30729,2.214523 2.30907,1.690777 c 0,0 1.26769,0.954315 1.95378,1.617142 0.20753,0.200494 0.89049,0.754044 0.89049,0.754044 l 0.5352,0.680407 c 1.49511,1.900758 -4.66449,5.193354 -5.99292,4.161804 l -1.55627,-1.208474 -1.55628,-1.208471 -3.84778,-2.587131 -3.84774,-2.586921 -3.83646,-2.260317 -3.83646,-2.260317 -3.307289,-1.735211 -3.307292,-1.735214 -2.910417,-1.290815 -2.910416,-1.290812 -3.682966,-1.410629 -3.682966,-1.410629 -2.534743,0.817738 -2.534742,0.817737 -8.995834,2.808695 -8.995834,2.808695 -8.73125,2.798831 -8.73125,2.798831 -3.770313,1.318062 -2.356445,0.823788 c -0.785482,0.274596 -0.96225,0.236323 -1.251215,0.643456 -0.149564,0.210726 -0.162652,0.626041 -0.162652,0.626041 v 0.775224 l 1.321718,6.640113 1.321715,6.640113 0.921793,3.337555 0.921792,3.33756 1.174488,3.43958 1.174486,3.43958 0.320595,0.79742 0.320593,0.79742 c -2.500238,3.04123 -2.252705,6.73168 -2.786049,10.45658 -0.07,0.48887 -0.775949,0.24739 -0.951119,-0.15424 l -1.48853,-3.41295 -1.48853,-3.41294 -1.68598,-5.05228 -1.685981,-5.05227 -1.326502,-5.42087 -1.326502,-5.420864 -0.660701,-3.439583 -0.660702,-3.439583 -0.18275,-1.395 -0.182751,-1.395002 c 0,0 -0.02313,-0.203447 -0.108293,-0.260678 -0.09187,-0.06174 -0.275646,0.02339 -0.275646,0.02339 l -4.601801,1.817733 -4.601802,1.817732 -3.035916,1.37727 -3.035916,1.377273 -3.1044162,1.556194 -3.1044164,1.556198 c 0,0 -0.3256524,0.139903 -0.4137783,0.281556 -0.1185788,0.190603 -0.093804,0.666869 -0.093804,0.666869 l 0.00523,20.762185 0.00523,20.76219 c 0,0 0.4596295,3.37741 1.004665,4.98114 0.5143454,1.51343 1.1923755,2.99788 2.112501,4.30493 0.4248942,0.60357 1.0112165,1.07634 1.5424253,1.58883 0.3408562,0.32884 0.7028838,0.63501 1.0543256,0.95252 0.351442,0.31751 1.054325,0.95252 1.054325,0.95252 l 1.512784,0.96771 1.512785,0.96772 7.841993,4.70293 7.841994,4.70294 13.49375,8.15736 13.493751,8.15736 12.264017,7.34616 12.26402,7.34615 0.303689,-0.1302 0.303691,-0.1302 2.38125,-3.22456 z m 65.264073,-9.53699 1.9401,-1.15306 4.89479,-2.99046 4.89479,-2.99046 2.96692,-1.74346 2.96692,-1.74346 0.01,-0.23425 0.01,-0.23426 -2.00925,-2.21314 -2.00924,-2.21314 h -0.4417 -0.44169 l -3.59424,3.63802 -3.59423,3.63802 -2.22701,2.51354 -2.22701,2.51354 -1.64969,2.02973 -1.64969,2.02972 v 0.15309 0.15309 h 0.11043 0.11043 l 1.94009,-1.15306 z M 8.9720004,85.804182 l 3.9244216,-1.816434 4.7625,-1.920396 4.7625,-1.920396 5.953125,-2.193417 5.953126,-2.193417 7.672917,-2.519228 7.672916,-2.519224 6.217709,-1.96904 6.217708,-1.96904 4.564063,-1.397071 4.564063,-1.397072 v -0.226295 -0.226293 l -1.404544,-0.621154 -1.404543,-0.621157 -4.085561,-2.192764 -4.085561,-2.192766 -3.373043,-2.200659 -3.373046,-2.200658 -1.742779,-1.319319 -1.742779,-1.319318 -1.234175,0.489662 -1.234178,0.489659 -1.984375,0.790255 -1.984375,0.790252 -5.291667,1.858348 -5.291667,1.858349 -5.820834,1.909035 -5.820833,1.909032 -4.630209,1.717435 -4.630208,1.717431 -3.3072918,1.422863 -3.3072918,1.422866 c 0,0 -0.3931339,0.180476 -0.5545419,0.370171 -0.1695045,0.199211 -0.3014241,0.663693 -0.3014241,0.663693 l -0.025202,8.679061 -0.025202,8.679064 0.00599,1.142073 0.014146,0.57637 c 0,0 -0.00832,0.267072 0.1019619,0.32628 0.1003054,0.05385 0.3437592,-0.06035 0.3437592,-0.06035 L 8.971998,85.80418 Z m 77.4876606,-26.903413 4.224263,-1.467766 3.439584,-1.462574 3.439583,-1.462574 2.430055,-1.290249 2.430054,-1.290251 2.33245,-1.501386 2.33244,-1.501386 2.18281,-1.700721 2.18282,-1.70072 v -0.253508 -0.253508 l -1.45909,-0.933363 -1.45908,-0.933362 -4.16331,-2.393204 -4.16332,-2.393201 -8.069787,-4.021299 -8.069792,-4.021302 -4.101042,-1.635506 -4.101042,-1.635508 -0.427267,-0.156054 -0.427271,-0.156054 -1.527648,2.461982 -1.527649,2.461985 -2.253202,3.042708 -2.2532,3.042709 -3.471492,3.439583 -3.471493,3.439583 -1.51466,1.036167 -1.51466,1.036166 v 0.295466 0.295465 l 2.844271,1.894896 2.844271,1.894893 2.248958,1.35314 2.248959,1.353143 3.307291,1.622081 3.307292,1.622081 3.96875,1.650656 3.96875,1.650656 0.0091,0.01894 0.0091,0.01894 4.224261,-1.467763 z m -33.494254,-18.089113 1.735183,-1.036042 2.116667,-1.748899 2.116666,-1.748898 2.191653,-2.44058 2.191652,-2.44058 2.20994,-3.307292 2.209943,-3.307292 2.004322,-3.704166 2.004322,-3.704167 2.022412,-4.7625 2.022409,-4.7625 1.71088,-4.4979167 1.710883,-4.4979166 1.458558,-3.96875 1.458561,-3.96875 0.91802,-2.6095607 0.918019,-2.609561 -0.122367,-0.122368 -0.122367,-0.122367 -2.736128,1.653385 -2.736128,1.653385 -10.715625,6.4761424 -10.715625,6.4761454 -3.836459,2.3010944 -3.836458,2.3010972 -8.466667,5.0891226 -8.466667,5.089123 -1.649024,0.970513 -1.649023,0.970515 -0.0046,0.300858 -0.0046,0.300858 1.7999,2.261785 1.799902,2.261785 3.335809,3.787357 3.335811,3.787357 3.132518,3.183898 3.132519,3.183901 2.503387,2.173912 2.503385,2.173914 h 0.391641 0.391642 l 1.735179,-1.036042 z m 77.488603,-22.379583 1.97591,-4.630208 1.97591,-4.6302083 2.2508,-5.8208334 2.25079,-5.8208333 0.60234,-1.6707538 0.60234,-1.6707511 -0.50471,-0.4751758 -0.50471,-0.4751777 -8.59896,-5.1520756 -8.59896,-5.152075 -4.17143,-2.459812 -4.17143,-2.459812 c -7.7611,-3.150855 -12.37444,-2.356833 -19.699105,1.259383 l -0.607637,1.5875 -0.607636,1.5875 -1.955099,5.688542 -1.955099,5.6885413 -1.843384,5.0428155 -1.843384,5.0428155 -2.255012,5.6728095 -2.255012,5.6728092 -0.947574,2.065179 -0.947576,2.065179 0.0033,0.316071 0.0033,0.316071 4.027141,1.777122 4.027138,1.777121 0.184293,-0.189621 0.184293,-0.189622 2.298838,-5.688541 2.29884,-5.688542 c 1.140717,-2.8227345 2.692282,-3.6444542 5.284719,-2.4313532 2.077189,0.9719972 2.568652,2.3051352 1.796404,4.1661412 l -2.000596,4.821148 -2.000597,4.821147 -0.645237,1.538793 -0.645237,1.538796 v 0.224766 0.224766 l 6.151809,3.158117 6.15181,3.158117 5.556,3.337832 5.55601,3.33783 0.13762,0.0087 0.13763,0.0087 c 5.493,-6.4215 9.49836,-13.802848 13.30115,-21.298917 z m 45.24634,146.261197 1.23774,-0.71484 9.26042,-5.72292 9.26042,-5.72291 1.45521,-0.94339 c 4.17419,-2.48843 6.14274,-6.6457 7.63809,-11.04222 l -0.19391,-0.11985 -0.19392,-0.11984 -5.01419,2.24733 -5.0142,2.24732 -4.10104,1.98235 -4.10104,1.98234 -3.43959,1.95844 -3.43958,1.95843 -3.09369,2.07098 -3.09369,2.07098 -1.86101,1.44705 -1.86102,1.44705 -0.006,0.22202 -0.006,0.22202 2.309,2.62225 2.309,2.62225 h 0.35587 0.35586 l 1.23774,-0.71484 z m -10.29504,-11.40887 2.00778,-1.54038 2.51355,-1.72954 2.51354,-1.72954 3.74865,-2.27114 3.74864,-2.27115 5.51177,-2.77503 5.51177,-2.77503 2.91042,-1.3674 2.91041,-1.36739 3.96293,-1.70944 3.96293,-1.70943 0.20021,-0.31489 0.20021,-0.31488 v -5.02709 -5.02708 l -0.19439,-0.30298 -0.19439,-0.30298 -3.4722,2.06959 -3.4722,2.06959 -3.80384,2.05227 -3.80384,2.05226 -4.36562,2.09883 -4.36563,2.09883 -5.02708,2.24854 -5.02709,2.24854 -6.08541,2.5879 -6.08542,2.5879 -4.84106,2.04092 -4.84105,2.04092 0.0845,0.25344 0.0845,0.25343 1.97845,0.86582 1.97845,0.86583 2.48477,1.38576 2.48477,1.38577 2.14308,1.43481 2.14309,1.4348 h 0.24352 0.24353 z M 7.0227916,58.540136 l 1.716322,-0.770061 4.9890714,-1.85157 4.98907,-1.851573 9.128126,-2.971311 9.128125,-2.971307 3.024378,-1.167871 3.024381,-1.167869 0.215445,-0.133154 0.215447,-0.133151 -5.242367,-5.210723 -5.242364,-5.210723 -2.892253,-3.311205 -2.892251,-3.311204 -2.353503,-2.964532 -2.353503,-2.964532 -0.160039,0.08774 -0.160038,0.08774 -3.782989,2.291107 -3.782989,2.291103 -1.432761,0.951302 -1.432762,0.951299 C 8.2574369,31.68673 5.5415308,35.945826 4.7283246,40.127905 4.1930635,43.152136 4.6241079,49.341016 4.6241079,49.341016 l -0.104217,9.21311 0.014308,0.4423 c 0,0 0.042139,0.203974 0.1397121,0.266195 0.1065076,0.06792 0.3843345,0.04757 0.3843345,0.04757 l 0.2864561,-0.03747 z"
       id="path314"
       sodipodi:nodetypes="cccccccccccccccaccccccccccccccccccccccccccccccccccssccccccccccccccccccccccccccccccccccccccccccccccccccccccccccccccccccccccccccsssccccccccaacccccccsacsccccccccccccccccccccccccccccccccccccsasccccccccccccccccccccccscccccccccccccccccccccccccccccccccccccccccscsscccccccccccccccccssscccccccccccsscccccccccscccccccacccaaaacccccccccccccccccccccccccccccccccccccccccccccccccccccccccccccccccccccccscccccsccccccccccccccccccccccccccccccccccccccccccccccccccccccccccccccccccccccccccccccccccccccccccccccccccccccccccccccccccccccccccsssccccccccccccccccccccccccccccccccccccccccccccccccccccccccccccccccccccccccccccccccccccccccccccccccccccccccccscccc" /><ellipse
       style="opacity:0.489951;mix-blend-mode:normal;fill:#f7d074;fill-opacity:1;stroke:none;stroke-width:0.264583;stroke-linecap:round;stroke-linejoin:round;stroke-dasharray:none;stroke-opacity:1;filter:url(#filter10889)"
       id="path6450"
       cx="5.2348228"
       cy="27.783318"
       rx="16.172655"
       ry="16.132349" /><circle
       style="opacity:0.489951;mix-blend-mode:normal;fill:#f7d074;fill-opacity:1;stroke:none;stroke-width:0.264583;stroke-linecap:round;stroke-linejoin:round;stroke-dasharray:none;stroke-opacity:1;filter:url(#filter10885)"
       id="path6452"
       cx="207.80023"
       cy="150.7019"
       r="16.452742" /></g><sodipodi:namedview
     id="namedview270"
     pagecolor="#505050"
     bordercolor="#eeeeee"
     borderopacity="1"
     inkscape:showpageshadow="0"
     inkscape:pageopacity="0"
     inkscape:pagecheckerboard="0"
     inkscape:deskcolor="#505050"
     inkscape:document-units="px"
     showgrid="false"
     inkscape:zoom="1.4142136"
     inkscape:cx="248.54803"
     inkscape:cy="378.65568"
     inkscape:window-width="2304"
     inkscape:window-height="1374"
     inkscape:window-x="0"
     inkscape:window-y="0"
     inkscape:window-maximized="1"
     inkscape:current-layer="svg268" /><defs
     id="defs265"><filter
       inkscape:collect="always"
       style="color-interpolation-filters:sRGB"
       id="filter10885"
       x="-0.70751445"
       y="-0.70751445"
       width="2.4150289"
       height="2.4150289"><feGaussianBlur
         inkscape:collect="always"
         stdDeviation="9.7004602"
         id="feGaussianBlur10887" /></filter><filter
       inkscape:collect="always"
       style="color-interpolation-filters:sRGB"
       id="filter10889"
       x="-0.71976756"
       y="-0.72156587"
       width="2.4395351"
       height="2.4431317"><feGaussianBlur
         inkscape:collect="always"
         stdDeviation="9.7004602"
         id="feGaussianBlur10891" /></filter><filter
       inkscape:collect="always"
       style="color-interpolation-filters:sRGB"
       id="filter11032"
       x="-0.030290906"
       y="-0.033417553"
       width="1.0605818"
       height="1.0668333"><feGaussianBlur
         inkscape:collect="always"
         stdDeviation="1.6012484"
         id="feGaussianBlur11034" /></filter></defs></svg>
