<svg width="256" height="256" version="1.1" viewBox="0 0 100 100" xmlns="http://www.w3.org/2000/svg">
 <path transform="scale(.79) translate(10.5,10.5)" d="m42.71 66.19a2.5 2.5 0 0 1-3.39 1.01l-34.24-18.51a2.5 2.5 0 0 1 0.4-4.57l27.79-9.27a2.5 2.5 0 0 0 1.58-1.58l9.27-27.79a2.5 2.5 0 0 1 4.57-0.4l18.51 34.24a2.5 2.5 0 0 1-1.01 3.39l-4.4 2.38a2.5 2.5 0 0 1-3.39-1.01l-7.52-13.93a2.5 2.5 0 0 0-4.58 0.4l-3.54 10.63a2.5 2.5 0 0 1-1.58 1.58l-10.63 3.54a2.5 2.5 0 0 0-0.4 4.58l13.93 7.52a2.5 2.5 0 0 1 1.01 3.39zm25.62-19.52a2.5 2.5 0 0 1 3.39 1.01l24.29 44.95a2.5 2.5 0 0 1-3.38 3.38l-44.95-24.29a2.5 2.5 0 0 1-1.01-3.39l2.38-4.4a2.5 2.5 0 0 1 3.38-1.01l15.46 8.35a2.5 2.5 0 0 0 3.38-3.38l-8.35-15.46a2.5 2.5 0 0 1 1.01-3.38z" fill="#35af6d"/>
</svg>
