<?xml version="1.0" encoding="UTF-8" standalone="no"?>
<!DOCTYPE svg PUBLIC "-//W3C//DTD SVG 1.1//EN" "http://www.w3.org/Graphics/SVG/1.1/DTD/svg11.dtd">
<svg width="100%" height="100%" viewBox="0 0 80 80" version="1.1" xmlns="http://www.w3.org/2000/svg" xmlns:xlink="http://www.w3.org/1999/xlink" xml:space="preserve" xmlns:serif="http://www.serif.com/" style="fill-rule:evenodd;clip-rule:evenodd;stroke-linejoin:round;stroke-miterlimit:2;">
    <g transform="matrix(1.131,0,0,1.131,-5.73434,-5.02279)">
        <g>
            <clipPath id="_clip1">
                <path d="M45.501,37.57L15.264,37.57C14.091,37.57 13.239,36.449 13.556,35.322L21.858,5.734C22.076,4.971 22.771,4.441 23.566,4.441L53.803,4.441C54.977,4.441 55.828,5.562 55.506,6.689L47.204,36.277C46.991,37.041 46.296,37.57 45.501,37.57ZM25.861,59.9L30.134,44.667C30.45,43.541 29.604,42.419 28.431,42.419L12.886,42.419C12.092,42.419 11.396,42.949 11.183,43.712L6.905,58.945C6.588,60.077 7.44,61.193 8.613,61.193L24.158,61.193C24.952,61.193 25.648,60.669 25.861,59.9ZM33.726,43.712L25.424,73.301C25.108,74.427 25.959,75.549 27.127,75.549L57.37,75.549C58.164,75.549 58.86,75.019 59.073,74.256L67.375,44.667C67.691,43.541 66.845,42.419 65.672,42.419L35.429,42.419C34.64,42.419 33.939,42.949 33.726,43.712ZM55.075,20.089L50.797,35.322C50.48,36.449 51.332,37.57 52.505,37.57L68.05,37.57C68.839,37.57 69.54,37.041 69.753,36.277L74.025,21.045C74.342,19.913 73.496,18.796 72.322,18.796L56.778,18.796C55.984,18.796 55.288,19.321 55.075,20.089Z"/>
            </clipPath>
            <g clip-path="url(#_clip1)">
                <rect x="6.588" y="4.441" width="67.743" height="70.734" style="fill:rgb(211,208,208);fill-rule:nonzero;"/>
            </g>
        </g>
    </g>
</svg>
